<svg xmlns="http://www.w3.org/2000/svg" xmlns:xlink="http://www.w3.org/1999/xlink" width="100" height="100" preserveAspectRatio="xMidYMid meet" viewBox="0 0 100 100" style="-ms-transform: rotate(360deg); -webkit-transform: rotate(360deg); transform: rotate(360deg);"><path d="M81.232 15.138H18.769a3.407 3.407 0 0 0-3.407 3.407v3.143a3.407 3.407 0 0 0 3.407 3.407h62.463a3.407 3.407 0 0 0 3.407-3.407v-3.143a3.407 3.407 0 0 0-3.407-3.407z" fill="#BE1C1C"/><path d="M81.232 74.905H18.769a3.407 3.407 0 0 0-3.407 3.407v3.143a3.407 3.407 0 0 0 3.407 3.407h62.463a3.407 3.407 0 0 0 3.407-3.407v-3.143a3.408 3.408 0 0 0-3.407-3.407z" fill="#BE1C1C"/><path d="M84.639 58.39a3.407 3.407 0 0 0-3.407-3.407h-38.82a3.407 3.407 0 0 0-3.407 3.407v3.143a3.406 3.406 0 0 0 3.407 3.406h38.82a3.407 3.407 0 0 0 3.407-3.406V58.39z" fill="#BE1C1C"/><path d="M84.639 38.577a3.407 3.407 0 0 0-3.407-3.407h-38.82a3.407 3.407 0 0 0-3.407 3.407v3.143a3.406 3.406 0 0 0 3.407 3.406h38.82a3.407 3.407 0 0 0 3.407-3.406v-3.143z" fill="#BE1C1C"/><path d="M15.93 57.847a.567.567 0 0 0 .406-.172L28.763 50.5l-.014-.024a.56.56 0 0 0 .289-.484a.567.567 0 0 0-.34-.519l.006-.01l-12.376-7.146a.567.567 0 0 0-.963.389h-.003v14.573a.567.567 0 0 0 .568.568z" fill="#BE1C1C"/><rect x="0" y="0" width="100" height="100" fill="rgba(0, 0, 0, 0)" /></svg>